<svg height="512" viewBox="0 0 512 512" width="512" xmlns="http://www.w3.org/2000/svg"><g><g fill="#57a4ff"><g><path d="m480 496h-448l2.75-73.63a80.021 80.021 0 0 1 60.44-56.31l68.16-14.35h.02l36.63-7.71 5.32 7.69 50.68 73.31 50.71-73.35 5.29-7.65 36.25 7.63h.02l68.54 14.43a80.021 80.021 0 0 1 60.44 56.31z"/><path d="m360 56v80a671.7 671.7 0 0 0 -208 0v-80a40 40 0 0 1 40-40h128a40 40 0 0 1 40 40z"/></g><path d="m320 240v60.15a133.979 133.979 0 0 1 -31.21 19.83c-11.51 5.17-22.89 8.02-32.79 8.02s-21.28-2.85-32.78-8.02a133.755 133.755 0 0 1 -31.22-19.84v-60.14l64-16z"/><path d="m205.32 351.69-41.95.02h-.02c-29.65-3.54-51.35-39.71-51.35-39.71 16-8 48-48 48-48h2.37a121.8 121.8 0 0 0 26.63 33.54c.99.89 1.99 1.76 3 2.6v19.84h8v24.02z"/><path d="m399 312s-21.4 35.67-50.73 39.63h-.02l-41.54.02 5.29-7.65v-24.02h8v-19.83c11.87-10.03 22.37-22.33 29.63-36.15h1.37s32 40 48 48z"/></g><g fill="#004fac"><path d="m485.24 422.07a7.683 7.683 0 0 0 -.3-1.9 87.824 87.824 0 0 0 -66.48-61.94l-43.47-9.15c18.48-12.62 30.19-31.83 30.87-32.96a8.011 8.011 0 0 0 -3.28-11.28c-3.89-1.94-19.02-13.42-43.06-43.01a96.08 96.08 0 0 0 6.96-21.83h5.52a28.031 28.031 0 0 0 28-28v-24a28.031 28.031 0 0 0 -28-28h-4v-104a48.051 48.051 0 0 0 -48-48h-128a48.051 48.051 0 0 0 -48 48v104h-4a28.031 28.031 0 0 0 -28 28v24a28.031 28.031 0 0 0 28 28h5.52a96.036 96.036 0 0 0 6.6 21.03c-24.41 30.18-39.78 41.85-43.7 43.81a8.011 8.011 0 0 0 -3.28 11.28c.69 1.14 12.5 20.51 31.11 33.12l-42.71 8.99a87.824 87.824 0 0 0 -66.48 61.94 7.683 7.683 0 0 0 -.3 1.9l-2.75 73.63a8 8 0 0 0 7.99 8.3h448a8 8 0 0 0 7.99-8.3zm-117.24-246.07h4a12.01 12.01 0 0 1 12 12v24a12.01 12.01 0 0 1 -12 12h-4zm-224 48h-4a12.01 12.01 0 0 1 -12-12v-24a12.01 12.01 0 0 1 12-12h4zm243.83 90.23c-7.89 10.58-22.83 26.36-39.37 29.27l-28.46-5.99v-27.16a138.369 138.369 0 0 0 31.25-33.47c8.7 10.34 24.14 27.83 36.58 37.35zm-59.83-33v-35.81l22.89-9.16c-2.15 12.18-8.06 28.28-22.89 44.97zm-168-193.23h120a8 8 0 0 0 0-16h-120v-16a32.042 32.042 0 0 1 32-32h128a32.042 32.042 0 0 1 32 32v16h-16a8 8 0 0 0 0 16h16v38.74a680.057 680.057 0 0 0 -192 0zm0 54.9a664.133 664.133 0 0 1 192 0v75.68l-32.57 13.03-61.49-15.37a7.961 7.961 0 0 0 -3.88 0l-61.49 15.37-32.57-13.03zm96 177.1c-16.46 0-37.83-9.13-56.02-23.65.01-.12.02-.24.02-.37v-49.73l56-14 56 14v49.73c0 .13.01.25.02.37-18.19 14.52-39.56 23.65-56.02 23.65zm48 1.1v20.4l-48 69.43-48-69.43v-20.4c16.38 9.48 33.46 14.9 48 14.9s31.62-5.42 48-14.9zm-120-75.68v35.81c-14.83-16.69-20.74-32.79-22.89-44.97zm-60.79 68.78c12.71-9.74 28.53-27.77 37.11-37.99a138.181 138.181 0 0 0 31.68 34.14v27.16l-28.9 6.08c-17.83-2.79-32.82-19.91-39.89-29.39zm292.79 173.8v-32a8 8 0 0 0 -16 0v32h-288v-32a8 8 0 0 0 -16 0v32h-55.7l2.41-64.34a71.856 71.856 0 0 1 54.13-49.77l99.6-20.97 52.98 76.63a8 8 0 0 0 13.16 0l52.98-76.63 99.6 20.97a71.856 71.856 0 0 1 54.13 49.77l2.41 64.34z"/><path d="m304 88h8a8 8 0 0 0 0-16h-8a8 8 0 0 0 0 16z"/><circle cx="208" cy="192" r="16"/><circle cx="304" cy="192" r="16"/></g></g></svg>